<?xml version="1.0" encoding="utf-8"?>
<!-- Generator: Adobe Illustrator 27.5.0, SVG Export Plug-In . SVG Version: 6.00 Build 0)  -->
<svg version="1.1" xmlns="http://www.w3.org/2000/svg" xmlns:xlink="http://www.w3.org/1999/xlink" x="0px" y="0px"
	 viewBox="0 0 500 500" style="enable-background:new 0 0 500 500;" xml:space="preserve">
<g id="BACKGROUND">
	<rect style="fill:tranparent;"/>
</g>
<g id="OBJECTS">
	<g>
		<defs>
			<path id="SVGID_1_" d="M250,87.378L250,87.378c-53.812,0-97.436,43.623-97.436,97.435v35.738
				c0,53.812,43.623,97.436,97.435,97.436h0c53.812,0,97.436-43.623,97.436-97.436v-35.738
				C347.436,131.002,303.812,87.378,250,87.378z"/>
		</defs>
		<clipPath id="SVGID_00000161608683991071832710000005441325650443765646_">
			<use xlink:href="#SVGID_1_"  style="overflow:visible;"/>
		</clipPath>
		<path style="clip-path:url(#SVGID_00000161608683991071832710000005441325650443765646_);fill:#FFF3E1;" d="M250,87.378
			L250,87.378c-53.812,0-97.436,43.623-97.436,97.435v35.738c0,53.812,43.623,97.436,97.435,97.436h0
			c53.812,0,97.436-43.623,97.436-97.436v-35.738C347.436,131.002,303.812,87.378,250,87.378z"/>
		<g style="clip-path:url(#SVGID_00000161608683991071832710000005441325650443765646_);">
			<g>
				<g>
					<path style="fill:#455218;" d="M273.753,145.266c2.964,0,5.967,0.602,8.887,1.946c12.384,5.702,14.197,20.573,8.968,31.251
						c-4.202,8.58-12.9,14.467-22.387,14.467c-3.258,0-6.607-0.693-9.901-2.21c-12.888-5.934-15.469-20.119-8.968-31.251
						C254.954,151.587,264.148,145.266,273.753,145.266 M273.753,139.596L273.753,139.596c-10.983,0-22.355,6.837-28.298,17.014
						c-4.256,7.287-5.343,15.76-2.983,23.246c2.223,7.053,7.364,12.74,14.476,16.014c3.934,1.811,8.063,2.73,12.272,2.73
						c11.444,0,22.231-6.925,27.479-17.643c3.739-7.635,4.362-16.714,1.667-24.286c-2.356-6.619-6.974-11.671-13.355-14.609
						C281.457,140.426,277.67,139.596,273.753,139.596L273.753,139.596z"/>
				</g>
			</g>
			<g>
				<path style="fill:#C7371E;" d="M282.64,147.212c12.384,5.702,14.197,20.573,8.968,31.251
					c-5.644,11.527-19.401,18.19-32.288,12.257c-12.888-5.934-15.469-20.119-8.968-31.251
					C256.374,149.155,270.261,141.512,282.64,147.212z"/>
			</g>
			<g>
				<path style="fill:#AB2F1A;" d="M274.199,179.944c-8.791,1.46-16.243-2.974-20.67-9.745c-1.784-2.728-3.238-6.003-3.918-9.358
					c-5.527,10.9-2.656,24.187,9.709,29.88c12.888,5.934,26.644-0.73,32.288-12.257c2.507-5.119,3.389-11.201,2.27-16.775
					C290.052,170.577,283.908,178.331,274.199,179.944z"/>
			</g>
			<g>
				<path style="fill:#455218;" d="M244.272,146.845c0,0,0.891,2.652,3.381,5.301c0.883,0.939,2.74,2.633,2.92,2.742
					c1.207-1.603,2.532-3.204,4.158-4.002c1.102-0.543,2.317-0.969,3.563-1.332c1.775-0.521,3.608-0.909,5.269-1.334
					c-1.678,2.473-3.833,4.025-6.611,5.134c2.163,1.007,3.831,1.292,6.316,1.476c-1.992,1.367-4.375,2.111-6.657,2.111
					c-0.528,0-1.051-0.04-1.562-0.121c1.199,1.871,2.602,3.611,4.184,5.169c-2.556-0.008-5.041-0.551-7.231-1.584
					c0.178,2.527-0.081,5.135-0.749,7.689c-0.37-2.14-0.739-4.279-1.114-6.422c0.256,1.459-2.751,6.146-3.713,7.439
					c0.696-2.424,0.406-4.836,0.619-7.141c0.146-1.639,0.559-3.232,1.766-4.74c0.192-0.242,0.384-0.492,0.584-0.755
					c-0.334-0.15-3.329-2.422-4.48-3.405c-2.743-2.343-3.567-4.312-3.567-4.312S241.798,147.642,244.272,146.845 M244.406,141.147
					c-0.628,0-1.26,0.104-1.874,0.302c-4.511,1.454-6.008,4.111-6.442,5.185c-0.559,1.385-0.55,2.935,0.027,4.313
					c0.316,0.754,1.617,3.447,5.115,6.434c0.011,0.009,0.332,0.277,0.826,0.675c-0.333,1.061-0.552,2.195-0.66,3.412
					c-0.09,0.97-0.106,1.887-0.122,2.773c-0.024,1.298-0.044,2.418-0.299,3.305c-0.756,2.633,0.478,5.43,2.933,6.646
					c0.804,0.398,1.663,0.589,2.513,0.589c1.245,0,2.47-0.411,3.469-1.182c0.362,0.089,0.737,0.144,1.121,0.16
					c0.081,0.003,0.162,0.005,0.242,0.005c2.568,0,4.829-1.732,5.483-4.236c0.171-0.654,0.319-1.308,0.446-1.963
					c0.673,0.06,1.351,0.092,2.031,0.094c0.006,0,0.012,0,0.018,0c2.297,0,4.368-1.386,5.242-3.511
					c0.478-1.161,0.547-2.417,0.245-3.582c0.604-0.319,1.191-0.673,1.756-1.06c1.985-1.362,2.893-3.829,2.266-6.152
					c-0.157-0.583-0.403-1.126-0.721-1.614c0.079-0.111,0.156-0.222,0.233-0.335c1.323-1.95,1.302-4.514-0.052-6.443
					c-1.078-1.534-2.821-2.411-4.639-2.411c-0.467,0-0.938,0.058-1.404,0.177c-0.548,0.14-1.115,0.276-1.693,0.414
					c-1.215,0.291-2.471,0.592-3.769,0.973c-1.72,0.502-3.185,1.054-4.469,1.686c-0.579,0.284-1.12,0.61-1.631,0.969
					c-0.6-0.896-0.898-1.606-0.963-1.769c-0.448-1.435-1.426-2.559-2.76-3.256C246.099,141.338,245.257,141.147,244.406,141.147
					L244.406,141.147z"/>
			</g>
			<path style="fill:#7E9E2C;" d="M256.952,153.354c2.163,1.007,3.831,1.292,6.316,1.476c-2.453,1.683-5.499,2.423-8.22,1.99
				c1.199,1.871,2.602,3.611,4.184,5.169c-2.556-0.008-5.041-0.551-7.231-1.584c0.178,2.527-0.081,5.135-0.749,7.689
				c-0.37-2.14-0.739-4.279-1.114-6.422c0.256,1.459-2.751,6.146-3.713,7.439c0.696-2.424,0.406-4.836,0.619-7.141
				c0.146-1.639,0.56-3.232,1.766-4.74c0.192-0.242,0.383-0.492,0.583-0.755c-0.334-0.15-3.329-2.422-4.48-3.405
				c-2.743-2.343-3.567-4.312-3.567-4.312s0.45-1.115,2.924-1.913c0,0,0.891,2.652,3.381,5.301c0.883,0.939,2.74,2.633,2.92,2.742
				c1.207-1.603,2.532-3.204,4.158-4.002c1.102-0.543,2.317-0.969,3.563-1.332c1.775-0.521,3.608-0.909,5.269-1.334
				C261.885,150.692,259.73,152.244,256.952,153.354z"/>
		</g>
		<g style="clip-path:url(#SVGID_00000161608683991071832710000005441325650443765646_);">
			<g>
				<path style="fill:#455218;" d="M217.792,182.474c2.167,0,4.601,0.857,7.092,2.845c10.839,8.649,7.771,20.285,12.944,22.938
					c2.364,1.212,7.221,0.299,10.324,1.626c3.687,1.577,5.411,5.569,4.702,9.569c-1.305,7.365-9.318,15.256-1.745,20.287
					c3.136,2.083,7.496,2.068,10.486,3.916c4.231,2.614,6.271,7.402,2.995,13.689c-2.995,5.748-7.233,9.648-10.523,12.029
					c-3.074,2.225-4.99,5.708-5.099,9.501c-0.217,7.554-0.866,19.641-2.806,24.908c0,0-1.3,2.189-3.555,2.189
					c-0.787,0-1.691-0.267-2.697-0.987c-3.887-2.782-3.722-8.613-3.722-8.613s1.761-7.155,3.053-13.936
					c1.049-5.502-1.814-11.033-6.944-13.281c-4.334-1.898-9.376-5.201-12.475-10.854c-4.553-8.305,5.602-11.547,6.134-16.128
					c0.206-1.778-5.36-5.275-7.345-7.083c-7.102-6.467-8.495-12.827-1.511-17.197c7.303-4.57,1.834-8.66-4.186-16.803
					C206.271,192.103,210.532,182.475,217.792,182.474 M217.793,176.805C217.793,176.805,217.793,176.805,217.793,176.805
					c-5.187,0.001-9.724,2.858-12.137,7.643c-3.025,5.999-1.99,13.668,2.701,20.013c1.074,1.453,2.129,2.781,3.061,3.953
					c1.108,1.394,2.541,3.197,3.201,4.322c-0.142,0.103-0.315,0.22-0.524,0.352c-5.465,3.42-6.928,7.655-7.194,10.606
					c-0.464,5.151,2.193,10.396,7.896,15.588c0.737,0.671,1.681,1.391,2.679,2.154c0.42,0.32,0.986,0.753,1.543,1.195
					c-0.099,0.102-0.194,0.201-0.283,0.292c-2.862,2.954-8.817,9.102-3.883,18.103c3.151,5.748,8.398,10.355,15.172,13.322
					c2.668,1.169,4.203,4.123,3.649,7.026c-1.248,6.547-2.972,13.572-2.989,13.643c-0.096,0.391-0.151,0.792-0.162,1.195
					c-0.025,0.905-0.072,8.973,6.089,13.383c1.897,1.358,3.914,2.046,5.997,2.046c4.047,0,7.07-2.674,8.43-4.965
					c0.177-0.297,0.325-0.61,0.445-0.935c1.717-4.661,2.778-13.646,3.153-26.705c0.057-1.996,1.062-3.845,2.757-5.072
					c3.612-2.615,8.665-7.167,12.226-14.002c4.314-8.279,2.334-16.573-5.043-21.131c-2.153-1.33-4.459-1.935-6.493-2.468
					c-1.536-0.403-2.987-0.783-3.835-1.347c-0.547-0.364-0.674-0.585-0.675-0.587c-0.235-0.862,1.188-4.017,1.952-5.712
					c1.117-2.478,2.384-5.286,2.914-8.277c1.195-6.746-2.117-13.23-8.055-15.77c-2.521-1.078-5.284-1.207-7.504-1.311
					c-0.689-0.032-1.652-0.077-2.251-0.157c-0.357-0.762-0.789-2.38-1.117-3.61c-1.33-4.986-3.34-12.521-11.09-18.704
					C225.073,178.217,221.398,176.805,217.793,176.805L217.793,176.805z"/>
			</g>
			<path style="fill:#B3C948;" d="M236.19,296.372c0,0,1.761-7.155,3.053-13.936c1.049-5.502-1.814-11.033-6.944-13.281
				c-4.334-1.898-9.376-5.201-12.475-10.854c-4.553-8.305,5.602-11.547,6.134-16.128c0.206-1.778-5.36-5.275-7.345-7.083
				c-7.102-6.467-8.495-12.827-1.511-17.197c7.303-4.57,1.834-8.66-4.186-16.803c-8.628-11.67,1.129-24.42,11.968-15.771
				c10.839,8.649,7.771,20.285,12.944,22.938c2.364,1.212,7.221,0.299,10.324,1.626c3.687,1.577,5.411,5.569,4.702,9.569
				c-1.305,7.365-9.318,15.256-1.745,20.287c3.136,2.083,7.496,2.068,10.486,3.916c4.231,2.614,6.271,7.401,2.995,13.689
				c-2.995,5.748-7.233,9.648-10.523,12.029c-3.074,2.225-4.99,5.708-5.099,9.501c-0.217,7.554-0.866,19.641-2.806,24.908
				c0,0-2.365,3.985-6.252,1.203C236.025,302.203,236.19,296.372,236.19,296.372z"/>
			<path style="fill:#7C943A;" d="M261.596,243.655c-2.908-1.796-7.102-1.847-10.216-3.764c-0.817,2.696-1.663,5.37-3.42,7.428
				c-2.902,3.397-8.546,3.598-12.474,2.108c-3.781-1.434-5.781-4.586-6.891-8.332c-1.428-4.815-1.696-8.183-6.427-10.961
				c-3.582-2.103-7.038-3.646-8.341-7.95c-0.097-0.321-0.169-0.645-0.232-0.969c-2.509,3.991-0.444,8.899,5.02,13.875
				c1.985,1.808,7.551,5.305,7.345,7.083c-0.532,4.581-10.687,7.823-6.134,16.128c3.099,5.653,8.141,8.956,12.475,10.854
				c5.13,2.247,7.993,7.779,6.944,13.281c-1.292,6.781-3.053,13.936-3.053,13.936s-0.165,5.831,3.722,8.613
				c3.887,2.782,6.252-1.203,6.252-1.203c1.94-5.267,2.589-17.354,2.806-24.908c0.109-3.793,2.025-7.276,5.099-9.501
				c3.29-2.382,7.528-6.281,10.523-12.029C267.867,251.056,265.827,246.269,261.596,243.655z"/>
			<g>
				<path style="fill:#455218;" d="M250.711,290.183c0,0-2.067-21.189-7.611-42.286c-2.787-10.607-7.449-21.128-11.155-29.042
					c-2.962-6.326,2.518,11.573,5.248,28.868c1.22,7.731,3.066,16.552,3.179,26.007L250.711,290.183z"/>
			</g>
		</g>
		<g style="clip-path:url(#SVGID_00000161608683991071832710000005441325650443765646_);">
			<path style="fill:#FFF3E1;" d="M185.575,207.327c-3.129-2.654-6.201-3.193-8.625-2.987c-3.388,0.287-6.616-1.486-8.261-4.462
				l-23.196-41.981c-1.712-3.098-5.676-4.118-8.671-2.232l0,0c-2.995,1.886-3.787,5.903-1.733,8.785l27.711,38.876
				c1.93,2.708,2.225,6.323,0.558,9.2c-1.147,1.981-1.912,4.99-1.006,9.428c2.875,14.095,23.381,27.095,30.469,22.631
				C200.019,240.05,195.892,216.077,185.575,207.327z"/>
			<path style="fill:#E0D2BC;" d="M167.688,229.979c-1.962-4.354-2.767-8.665-1.878-13.391c0.936-4.98,4.018-6.559,2.623-9.161
				c-4.635-8.651-13.909-20.455-18.247-29.29c-2.76-5.62-4.634-11.891-3.396-17.892l-1.297-2.347
				c-1.712-3.098-5.676-4.118-8.671-2.232c-2.995,1.886-3.787,5.903-1.733,8.785l27.711,38.876c1.93,2.708,2.224,6.323,0.558,9.2
				c-1.147,1.981-1.911,4.99-1.006,9.428c1.101,5.398,4.791,10.631,9.32,14.789C170.121,234.626,168.768,232.377,167.688,229.979z"
				/>
			<g>
				<path style="fill:#455218;" d="M140.096,154.716c2.162,0,4.269,1.14,5.397,3.181l23.196,41.981
					c1.528,2.766,4.424,4.492,7.546,4.492c0.237,0,0.476-0.01,0.715-0.03c0.3-0.025,0.61-0.039,0.929-0.039
					c2.257,0,4.954,0.702,7.697,3.027c10.318,8.749,14.445,32.723,7.246,37.256c-0.968,0.61-2.185,0.893-3.575,0.893
					c-8.785,0-24.412-11.355-26.895-23.524c-0.905-4.438-0.141-7.447,1.006-9.428c1.666-2.878,1.372-6.493-0.558-9.2l-27.711-38.876
					c-2.054-2.882-1.262-6.898,1.733-8.785C137.843,155.021,138.976,154.716,140.096,154.716 M140.096,149.046L140.096,149.046
					c-2.228,0-4.405,0.629-6.296,1.82c-2.742,1.727-4.674,4.54-5.301,7.719c-0.627,3.179,0.092,6.515,1.973,9.154l27.711,38.876
					c0.675,0.947,0.783,2.18,0.269,3.069c-2.153,3.719-2.71,8.228-1.655,13.402c1.892,9.276,8.984,16.246,13.043,19.576
					c6.477,5.313,13.731,8.485,19.406,8.485c2.517,0,4.736-0.594,6.596-1.765c2.525-1.59,5.648-5.081,6.186-12.677
					c0.75-10.6-3.827-26.103-12.786-33.701c-3.373-2.86-7.302-4.372-11.363-4.372c-0.466,0-0.94,0.02-1.407,0.059
					c-0.079,0.007-0.158,0.01-0.237,0.01c-1.06,0-2.05-0.6-2.583-1.565l-23.196-41.981
					C148.373,151.387,144.404,149.047,140.096,149.046L140.096,149.046L140.096,149.046z"/>
			</g>
		</g>
		<g style="clip-path:url(#SVGID_00000161608683991071832710000005441325650443765646_);">
			<g>
				<path style="fill:#455218;" d="M318.92,193.162c1.201,0,2.392,0.163,3.56,0.499c3.743,1.075,6.751,3.789,8.863,7.605
					c2.452,4.429,3.699,10.337,3.53,16.882c-0.124,4.419,1.025,8.738,3.046,12.654c4.004,7.744,5.175,17.028,2.556,26.141
					c-1.743,6.068-4.914,11.147-9.015,15.04c-6.141,5.829-14.389,9.03-23.161,9.03c-3.759,0-7.614-0.588-11.442-1.808
					c-4.807-1.532-9.126-3.931-12.727-6.991c-9.204-7.779-13.896-19.785-10.993-32.516c1.617-7.073,5.179-13.122,9.958-17.751
					c2.016-1.938,4.25-3.624,6.633-5.041c3.769-2.214,7.013-5.271,9.25-9.07c0.015-0.008,0.022-0.031,0.025-0.043
					c4.182-7.066,9.743-12.1,15.391-13.887C315.904,193.416,317.421,193.162,318.92,193.162 M318.92,187.493
					C318.92,187.493,318.92,187.493,318.92,187.493c-2.074,0-4.184,0.342-6.271,1.018c-6.988,2.212-13.579,8.038-18.525,16.394
					c-0.014,0.024-0.028,0.047-0.041,0.071c-1.653,2.801-4.151,5.236-7.226,7.042c-2.814,1.673-5.392,3.633-7.69,5.841
					c-5.764,5.585-9.754,12.694-11.556,20.575c-3.261,14.303,1.547,28.548,12.86,38.11c4.227,3.594,9.165,6.31,14.664,8.063
					c4.32,1.378,8.749,2.076,13.164,2.076c10.26,0,19.871-3.76,27.064-10.588c4.955-4.703,8.607-10.785,10.561-17.586
					c2.926-10.183,1.871-20.947-2.969-30.31c-1.671-3.237-2.507-6.658-2.415-9.891c0.196-7.588-1.269-14.426-4.237-19.788
					c-2.923-5.279-7.161-8.844-12.258-10.308C322.385,187.735,320.661,187.493,318.92,187.493L318.92,187.493z"/>
			</g>
			<path style="fill:#F0C72F;" d="M340.477,256.943c-1.743,6.068-4.914,11.147-9.015,15.04c-8.772,8.327-21.843,11.291-34.604,7.222
				c-4.807-1.532-9.126-3.931-12.727-6.991c-9.204-7.779-13.896-19.785-10.993-32.516c1.617-7.073,5.179-13.122,9.958-17.751
				c2.016-1.938,4.25-3.624,6.633-5.041c3.77-2.214,7.013-5.271,9.25-9.07c0.015-0.008,0.022-0.031,0.025-0.043
				c4.182-7.066,9.743-12.1,15.391-13.887c2.719-0.88,5.459-0.999,8.086-0.244c3.743,1.075,6.751,3.789,8.863,7.605
				c2.452,4.429,3.699,10.337,3.53,16.882c-0.125,4.419,1.025,8.738,3.046,12.654C341.924,238.546,343.095,247.829,340.477,256.943z
				"/>
			<path style="fill:#D6A020;" d="M334.874,218.148c0.149-5.752-0.798-11.009-2.694-15.206c-4.118,12.418-2.246,23.122-2.138,28.363
				c0.347,16.814-18.122,21.277-28.219,22.79c-11.631,1.743-26.518-1.685-29.501-8.057c-0.362,10.305,4.154,19.705,11.81,26.175
				c3.6,3.06,7.92,5.459,12.727,6.991c12.761,4.069,25.832,1.105,34.604-7.222c4.101-3.893,7.272-8.972,9.015-15.04
				c2.618-9.113,1.448-18.397-2.556-26.141C335.899,226.886,334.749,222.567,334.874,218.148z"/>
			<g id="XMLID_1_">
				<path style="fill:#455218;" d="M326.615,197.824c0.946-5.316,3.6-18.457,7.768-25.265c0.966-1.578,0.079-3.627-1.744-3.947
					l-11.384-1.998c-1.902-0.334-3.487,1.442-2.941,3.294c1.765,5.994,4.551,17.554,3.138,27.008
					c-0.229,1.534,0.851,2.948,2.399,3.057l0,0C325.188,200.067,326.38,199.145,326.615,197.824z"/>
			</g>
		</g>
		<g style="clip-path:url(#SVGID_00000161608683991071832710000005441325650443765646_);">
			<path style="fill:#FFF3E1;" d="M276.921,105.701c-0.058,0.633-0.608,1.105-1.242,1.066l-26.184-1.613
				c-0.128-0.001-0.234,0.096-0.246,0.223l-0.086,0.941c-0.077,0.848,0.539,1.601,1.385,1.692l24.757,2.677
				c0.638,0.069,1.102,0.637,1.044,1.275l0,0c-0.058,0.639-0.618,1.113-1.258,1.065l-24.832-1.86
				c-0.849-0.063-1.592,0.565-1.669,1.413l0,0c-0.077,0.847,0.539,1.601,1.385,1.692l24.757,2.677
				c0.638,0.069,1.102,0.637,1.044,1.275l0,0c-0.059,0.639-0.618,1.113-1.258,1.065l-24.832-1.86
				c-0.849-0.063-1.592,0.565-1.669,1.413l-0.086,0.941c-0.012,0.127,0.076,0.242,0.202,0.264l26.042,3.165
				c0.631,0.077,1.086,0.641,1.028,1.274l-0.004,0.042c-0.057,0.628-0.6,1.099-1.23,1.066l-28.702-1.467
				c-3.845-0.197-7.405-2.085-9.724-5.158l0,0c-2.366-3.135-6.021-5.034-9.947-5.167l-47.701-1.622
				c-3.477-0.118-6.139-3.136-5.822-6.601l0,0c0.317-3.465,3.482-5.949,6.923-5.435l47.204,7.06
				c3.884,0.581,7.823-0.623,10.719-3.276l0,0c2.838-2.601,6.682-3.812,10.499-3.308l28.492,3.765
				c0.625,0.083,1.074,0.644,1.016,1.272L276.921,105.701z"/>
			<path style="fill:#E0D2BC;" d="M179.439,104.363c2.307,3.471,6.469,4.765,10.389,5.294c5.198,0.701,31.018,1.583,36.753,1.772
				c4.009,0.132,6.396,0.642,9.683,3.43c2.997,2.543,4.334,6.561,7.421,9.082c-3.227-0.566-6.146-2.326-8.143-4.972
				c-2.366-3.135-6.021-5.034-9.947-5.167l-47.701-1.622c-3.477-0.118-6.139-3.136-5.822-6.601c0.286-3.127,2.895-5.448,5.93-5.493
				C178.071,101.53,178.513,102.97,179.439,104.363z"/>
			<g>
				<path style="fill:#455218;" d="M178.091,100.077c0.298,0,0.6,0.022,0.904,0.067l47.204,7.06
					c0.642,0.096,1.286,0.143,1.926,0.143c3.232,0,6.376-1.205,8.793-3.42l0,0c2.415-2.213,5.558-3.42,8.793-3.42
					c0.567,0,1.137,0.037,1.706,0.112l28.492,3.765c0.625,0.083,1.074,0.644,1.016,1.272l-0.004,0.042
					c-0.056,0.608-0.566,1.068-1.169,1.068c-0.024,0-0.049-0.001-0.073-0.002l-26.184-1.613c-0.001,0-0.001,0-0.002,0
					c-0.126,0-0.232,0.097-0.244,0.223l-0.086,0.941c-0.077,0.848,0.539,1.601,1.385,1.692l24.757,2.677
					c0.638,0.069,1.102,0.637,1.044,1.275c-0.056,0.609-0.567,1.068-1.169,1.068c-0.03,0-0.059-0.001-0.089-0.003l-24.832-1.86
					c-0.04-0.003-0.079-0.004-0.118-0.004c-0.798,0-1.477,0.609-1.551,1.417l0,0c-0.078,0.848,0.539,1.601,1.385,1.692l24.757,2.677
					c0.638,0.069,1.102,0.637,1.044,1.275c-0.056,0.609-0.567,1.068-1.169,1.068c-0.03,0-0.059-0.001-0.089-0.003l-24.832-1.86
					c-0.039-0.003-0.079-0.004-0.118-0.004c-0.799,0-1.477,0.609-1.551,1.417l-0.086,0.941c-0.012,0.127,0.076,0.242,0.202,0.264
					l26.042,3.165c0.631,0.077,1.086,0.641,1.028,1.274l-0.004,0.042c-0.056,0.608-0.566,1.068-1.169,1.068
					c-0.02,0-0.04-0.001-0.061-0.002l-28.702-1.467c-3.845-0.197-7.405-2.085-9.724-5.158c-2.366-3.135-6.021-5.034-9.947-5.167
					l-47.701-1.622c-3.477-0.118-6.139-3.136-5.822-6.601C172.361,102.422,175.017,100.077,178.091,100.077 M178.091,94.408
					c-6.094,0-11.109,4.581-11.664,10.655c-0.293,3.198,0.758,6.413,2.882,8.822c2.124,2.408,5.183,3.852,8.393,3.961l47.701,1.622
					c2.226,0.076,4.272,1.139,5.614,2.916c3.338,4.423,8.426,7.121,13.96,7.404l28.702,1.467c0.115,0.006,0.233,0.009,0.35,0.009
					c3.561,0,6.491-2.674,6.815-6.221c0.105-1.147-0.068-2.247-0.464-3.235c0.569-0.895,0.938-1.937,1.041-3.068
					c0.102-1.118-0.076-2.202-0.476-3.182c0.574-0.898,0.945-1.945,1.049-3.081c0.102-1.118-0.076-2.202-0.476-3.182
					c0.573-0.898,0.944-1.944,1.048-3.08c0.34-3.713-2.26-6.968-5.915-7.451l-28.492-3.765c-0.809-0.107-1.633-0.161-2.448-0.161
					c-4.686,0-9.169,1.744-12.624,4.909c-1.358,1.245-3.121,1.93-4.963,1.93c-0.362,0-0.728-0.027-1.087-0.081l-47.204-7.06
					C179.257,94.452,178.671,94.408,178.091,94.408L178.091,94.408z"/>
			</g>
		</g>
		<g style="clip-path:url(#SVGID_00000161608683991071832710000005441325650443765646_);">
			<path style="fill:#FFF3E1;" d="M189.119,260.487L189.119,260.487c0,27.285,16.812,50.63,40.635,60.28v7.996
				c0,0.797,0.646,1.443,1.443,1.443h67.247c0.797,0,1.443-0.646,1.443-1.443v-7.996c23.823-9.65,40.635-32.995,40.635-60.28v0
				H189.119z"/>
			<path style="fill:#E0D2BC;" d="M317.577,260.487c-5.315,17.438-14.551,28.845-32.975,38.057
				c-27.157,13.579-56.829,11.557-78.743,5.467c6.545,7.251,14.693,13.028,23.895,16.756v7.996c0,0.797,0.646,1.443,1.443,1.443
				h67.247c0.797,0,1.443-0.646,1.443-1.443v-7.996c23.823-9.65,40.635-32.995,40.635-60.28v0H317.577z"/>
			<g>
				<path style="fill:#455218;" d="M340.522,260.487L340.522,260.487c0,27.285-16.812,50.63-40.635,60.28v7.996
					c0,0.797-0.646,1.443-1.443,1.443h-67.247c-0.797,0-1.443-0.646-1.443-1.443v-7.996c-23.824-9.65-40.635-32.995-40.635-60.28v0
					H340.522 M340.522,254.818H189.119c-3.131,0-5.669,2.538-5.669,5.669c0,14.354,4.281,28.173,12.38,39.963
					c7.17,10.437,16.883,18.683,28.255,24.024v4.289c0,3.922,3.191,7.112,7.112,7.112h67.247c3.922,0,7.112-3.191,7.112-7.112
					v-4.289c11.372-5.341,21.085-13.587,28.255-24.024c8.099-11.79,12.38-25.609,12.38-39.963
					C346.191,257.356,343.653,254.818,340.522,254.818L340.522,254.818z"/>
			</g>
		</g>
		<g style="clip-path:url(#SVGID_00000161608683991071832710000005441325650443765646_);">
			<g>
				<path style="fill:#455218;" d="M317.107,107.446c0,0,9.819,9.59,8.014,25.591c-1.75,15.508-11.392,19.465-11.392,19.465
					c-9.015-9.557-11.885-22.67-8.075-32.509C309.623,109.744,317.107,107.446,317.107,107.446 M317.107,101.777
					c-0.556,0-1.116,0.082-1.663,0.25c-0.48,0.147-3.031,1.004-6.072,3.388c-3.9,3.057-7.013,7.39-9.004,12.532
					c-4.705,12.15-0.993,27.601,9.238,38.446c1.093,1.159,2.595,1.779,4.126,1.779c0.724,0,1.454-0.139,2.151-0.425
					c0.521-0.214,12.772-5.446,14.873-24.074c2.092-18.542-9.204-29.812-9.686-30.282
					C319.994,102.341,318.566,101.777,317.107,101.777L317.107,101.777z"/>
			</g>
			<path style="fill:#B3C948;" d="M313.729,152.503c-9.015-9.557-11.885-22.67-8.075-32.509
				c3.969-10.249,11.453-12.547,11.453-12.547s9.819,9.59,8.014,25.591C323.371,148.545,313.729,152.503,313.729,152.503z"/>
			<path style="fill:#7C943A;" d="M325.121,133.037c0.9-7.975-1.088-14.356-3.309-18.752c0.024,0.274-0.008,0.557,0.067,0.822
				c1.385,4.881,1.736,19.003-5.6,27.98c-0.96,1.174-1.019-6.963-1.708-6.038c-1.159,1.557-1.862,6.365-2.32,6.216
				c-3.389-1.097-6.678-6.388-7.926-9.937c0.94,6.695,4.099,13.55,9.404,19.174C313.729,152.502,323.372,148.545,325.121,133.037z"
				/>
			<path style="fill:#455218;" d="M313.655,154.332c-1.142-2.506-1.869-8.004-1.089-16.684c0.319-3.553,0.904-8.673,1.431-11.913
				c0.316-1.945,0.911-2.484,1.204-0.437c0.445,3.116,0.35,8.62,0.896,13.86c0.779,7.469-1.155,15.114-1.155,15.114L313.655,154.332
				z"/>
		</g>
		<g style="clip-path:url(#SVGID_00000161608683991071832710000005441325650443765646_);">
			<g>
				<path style="fill:#455218;" d="M207.936,136.104c3.68,0,5.917,0.951,5.917,0.951s1.438,14.72-11.154,26.657
					c-7.661,7.262-14.729,8.615-18.928,8.615c-2.49,0-3.972-0.475-3.972-0.475c-0.798-14.134,5.936-26.936,15.905-32.402
					C200.513,136.812,204.761,136.104,207.936,136.104 M207.936,130.435C207.936,130.435,207.936,130.435,207.936,130.435
					c-5.033,0-10.065,1.361-14.958,4.044c-12.165,6.671-19.736,21.818-18.84,37.693c0.132,2.343,1.694,4.362,3.929,5.079
					c0.388,0.125,2.489,0.746,5.703,0.746c5.52,0,13.962-1.764,22.828-10.169c14.438-13.686,12.966-30.609,12.896-31.323
					c-0.202-2.065-1.515-3.854-3.424-4.666C215.52,131.604,212.537,130.435,207.936,130.435L207.936,130.435z"/>
			</g>
			<path style="fill:#B3C948;" d="M179.798,171.852c-0.798-14.134,5.936-26.936,15.905-32.402
				c10.385-5.694,18.149-2.394,18.149-2.394s1.438,14.72-11.154,26.657C190.494,175.281,179.798,171.852,179.798,171.852z"/>
			<path style="fill:#7C943A;" d="M202.698,163.712c6.276-5.949,9.066-12.589,10.287-17.754c-0.17,0.242-0.394,0.453-0.516,0.724
				c-2.246,4.984-11.757,16.87-24.034,19.178c-1.607,0.302,3.993-6.447,2.782-6.162c-2.036,0.479-5.952,3.954-6.227,3.514
				c-2.032-3.257-1.072-9.901,0.363-13.693c-3.872,6.171-6.025,14.014-5.555,22.332
				C179.798,171.852,190.494,175.281,202.698,163.712z"/>
			<path style="fill:#455218;" d="M178.468,173.308c0.797-2.859,4.014-7.895,10.681-14.51c2.729-2.707,6.764-6.522,9.447-8.828
				c1.61-1.384,2.475-1.415,1.295,0.475c-1.796,2.877-5.695,7.349-8.88,12.048c-4.541,6.698-11.441,11.657-11.441,11.657
				L178.468,173.308z"/>
		</g>
	</g>
	<g>
		<path style="fill:#455218;" d="M250,87.378c53.812,0,97.436,43.623,97.436,97.435v35.738c0,53.812-43.623,97.436-97.436,97.436h0
			c-53.812,0-97.436-43.623-97.436-97.436v-35.738C152.564,131.002,196.188,87.378,250,87.378L250,87.378 M250,81.709
			c-56.852,0-103.105,46.253-103.105,103.105v35.738c0,56.852,46.253,103.105,103.105,103.105s103.105-46.253,103.105-103.105
			v-35.738C353.105,127.962,306.852,81.709,250,81.709L250,81.709z"/>
	</g>
</g>
<g id="TEXTS">
	<text transform="matrix(1.0084 0 0 1 39.9596 398.3384)"><tspan x="0" y="0" style="fill:#455218; font-family:'BigShouldersDisplay-ExtraBold'; font-size:62.5397px;">HEALTHY </tspan><tspan x="258.289" y="0" style="fill:#7E9E2C; font-family:'BigShouldersDisplay-ExtraBold'; font-size:62.5397px;">FOOD</tspan></text>
	<g>
		
			<text transform="matrix(1 0 0 1 109.4386 428.4477)" style="fill:#48402E; font-family:'Staatliches-Regular'; font-size:25.5895px; letter-spacing:5;">THE BEST QUALITY</text>
	</g>
</g>
</svg>
